<svg width="246" height="40" viewBox="0 0 246 40" fill="none" xmlns="http://www.w3.org/2000/svg">
  <path d="M241.936 35.4506H241.846C241.185 36.6518 240.134 37.6728 238.693 38.5136C237.281 39.3245 235.63 39.7299 233.738 39.7299C232.266 39.7299 230.885 39.4596 229.594 38.9191C228.302 38.3485 227.176 37.5677 226.215 36.5767C225.284 35.5857 224.548 34.4145 224.008 33.0632C223.467 31.7118 223.197 30.2404 223.197 28.6488C223.197 27.0572 223.467 25.5857 224.008 24.2343C224.548 22.883 225.299 21.7118 226.26 20.7208C227.221 19.7298 228.377 18.9641 229.729 18.4235C231.11 17.853 232.627 17.5677 234.278 17.5677C235.81 17.5677 237.206 17.883 238.467 18.5136C239.759 19.1443 240.885 20.0301 241.846 21.1713H241.936V5.13522H245.449V39.1893H241.936V35.4506ZM241.936 28.6488C241.936 27.5377 241.756 26.5166 241.395 25.5857C241.065 24.6247 240.57 23.7989 239.909 23.1082C239.248 22.3875 238.452 21.8319 237.521 21.4416C236.621 21.0211 235.6 20.8109 234.458 20.8109C233.317 20.8109 232.281 21.0211 231.35 21.4416C230.449 21.8319 229.669 22.3875 229.008 23.1082C228.347 23.7989 227.837 24.6247 227.476 25.5857C227.146 26.5166 226.981 27.5377 226.981 28.6488C226.981 29.7599 227.146 30.7959 227.476 31.7569C227.837 32.6878 228.347 33.5136 229.008 34.2344C229.669 34.9251 230.449 35.4806 231.35 35.901C232.281 36.2914 233.317 36.4866 234.458 36.4866C235.6 36.4866 236.621 36.2914 237.521 35.901C238.452 35.4806 239.248 34.9251 239.909 34.2344C240.57 33.5136 241.065 32.6878 241.395 31.7569C241.756 30.7959 241.936 29.7599 241.936 28.6488Z" fill="#079211"/>
  <path d="M218.663 34.1893C218.663 35.1503 218.693 36.0512 218.753 36.892C218.813 37.7329 218.843 38.4986 218.843 39.1893H215.509C215.509 38.6188 215.494 38.0482 215.464 37.4776C215.434 36.907 215.419 36.3215 215.419 35.7209H215.329C215.089 36.2314 214.744 36.7269 214.293 37.2073C213.873 37.6878 213.362 38.1233 212.762 38.5136C212.161 38.874 211.485 39.1593 210.735 39.3695C209.984 39.6097 209.173 39.7299 208.302 39.7299C206.921 39.7299 205.72 39.5197 204.699 39.0992C203.708 38.6788 202.882 38.0932 202.221 37.3425C201.56 36.5917 201.065 35.6908 200.735 34.6398C200.434 33.5587 200.284 32.3875 200.284 31.1263V18.1082H203.798V30.7659C203.798 32.5377 204.188 33.9341 204.969 34.9551C205.75 35.9761 206.966 36.4866 208.618 36.4866C209.759 36.4866 210.735 36.2914 211.545 35.901C212.386 35.5106 213.062 34.9551 213.572 34.2344C214.113 33.5136 214.503 32.6578 214.744 31.6668C215.014 30.6758 215.149 29.5797 215.149 28.3785V18.1082H218.663V34.1893Z" fill="#079211"/>
  <path d="M173.223 28.6487C173.223 26.9971 173.509 25.4956 174.079 24.1442C174.65 22.7929 175.431 21.6367 176.422 20.6758C177.413 19.6848 178.599 18.919 179.98 18.3785C181.362 17.8379 182.863 17.5676 184.485 17.5676C186.106 17.5676 187.608 17.8379 188.989 18.3785C190.371 18.919 191.557 19.6848 192.548 20.6758C193.539 21.6367 194.319 22.7929 194.89 24.1442C195.461 25.4956 195.746 26.9971 195.746 28.6487C195.746 30.3004 195.461 31.8019 194.89 33.1532C194.319 34.5046 193.539 35.6758 192.548 36.6668C191.557 37.6277 190.371 38.3785 188.989 38.919C187.608 39.4596 186.106 39.7298 184.485 39.7298C182.863 39.7298 181.362 39.4596 179.98 38.919C178.599 38.3785 177.413 37.6277 176.422 36.6668C175.431 35.6758 174.65 34.5046 174.079 33.1532C173.509 31.8019 173.223 30.3004 173.223 28.6487ZM177.007 28.6487C177.007 29.7599 177.172 30.7959 177.503 31.7569C177.863 32.6878 178.374 33.5136 179.034 34.2343C179.695 34.925 180.476 35.4806 181.377 35.901C182.307 36.2914 183.344 36.4866 184.485 36.4866C185.626 36.4866 186.647 36.2914 187.548 35.901C188.479 35.4806 189.274 34.925 189.935 34.2343C190.596 33.5136 191.091 32.6878 191.422 31.7569C191.782 30.7959 191.962 29.7599 191.962 28.6487C191.962 27.5376 191.782 26.5166 191.422 25.5857C191.091 24.6247 190.596 23.7989 189.935 23.1082C189.274 22.3875 188.479 21.8319 187.548 21.4415C186.647 21.0211 185.626 20.8109 184.485 20.8109C183.344 20.8109 182.307 21.0211 181.377 21.4415C180.476 21.8319 179.695 22.3875 179.034 23.1082C178.374 23.7989 177.863 24.6247 177.503 25.5857C177.172 26.5166 177.007 27.5376 177.007 28.6487Z" fill="#079211"/>
  <path d="M164.834 5.13522H168.348V39.1893H164.834V5.13522Z" fill="#079211"/>
  <path d="M156.677 13.874C155.716 12.5827 154.53 11.6217 153.118 10.9911C151.707 10.3304 150.235 10.0001 148.704 10.0001C146.932 10.0001 145.295 10.3605 143.794 11.0812C142.322 11.8019 141.046 12.7779 139.965 14.0091C138.884 15.2103 138.043 16.6217 137.443 18.2433C136.842 19.8349 136.542 21.5016 136.542 23.2433C136.542 25.1052 136.842 26.847 137.443 28.4686C138.043 30.0602 138.869 31.4566 139.92 32.6578C141.001 33.8289 142.277 34.7599 143.749 35.4506C145.25 36.1413 146.902 36.4866 148.704 36.4866C150.656 36.4866 152.398 36.1112 153.929 35.3605C155.461 34.5797 156.797 33.4686 157.938 32.0271L160.776 34.4145C159.334 36.3365 157.593 37.7479 155.551 38.6488C153.539 39.5497 151.256 40.0001 148.704 40.0001C146.422 40.0001 144.289 39.5797 142.307 38.7389C140.325 37.898 138.599 36.7419 137.127 35.2704C135.686 33.7689 134.545 31.9971 133.704 29.9551C132.893 27.913 132.488 25.6758 132.488 23.2433C132.488 20.901 132.878 18.7088 133.659 16.6668C134.47 14.6247 135.596 12.8529 137.037 11.3514C138.479 9.84994 140.19 8.66375 142.172 7.79288C144.154 6.92201 146.331 6.48657 148.704 6.48657C150.866 6.48657 152.938 6.87696 154.92 7.65774C156.932 8.43853 158.614 9.7148 159.965 11.4866L156.677 13.874Z" fill="#079211"/>
  <path d="M122.048 17.2974H128.804V39.1893H122.048V17.2974ZM121.507 10.4055C121.507 9.32441 121.883 8.4085 122.633 7.65774C123.414 6.87696 124.345 6.48657 125.426 6.48657C126.507 6.48657 127.423 6.87696 128.174 7.65774C128.955 8.4085 129.345 9.32441 129.345 10.4055C129.345 11.4866 128.955 12.4175 128.174 13.1983C127.423 13.949 126.507 14.3244 125.426 14.3244C124.345 14.3244 123.414 13.949 122.633 13.1983C121.883 12.4175 121.507 11.4866 121.507 10.4055Z" fill="#dddddd"/>
  <path d="M119.425 22.7029H113.479V30.0002C113.479 30.6008 113.509 31.1563 113.569 31.6669C113.629 32.1473 113.764 32.5678 113.974 32.9281C114.185 33.2885 114.5 33.5738 114.92 33.784C115.371 33.9642 115.956 34.0543 116.677 34.0543C117.037 34.0543 117.503 34.0242 118.073 33.9642C118.674 33.8741 119.124 33.6939 119.425 33.4236V39.0543C118.674 39.3245 117.893 39.5047 117.082 39.5948C116.272 39.6849 115.476 39.7299 114.695 39.7299C113.554 39.7299 112.503 39.6098 111.542 39.3696C110.581 39.1293 109.74 38.754 109.019 38.2434C108.299 37.7029 107.728 37.0122 107.308 36.1714C106.917 35.3305 106.722 34.3095 106.722 33.1083V22.7029H102.398V17.2975H106.722V10.811H113.479V17.2975H119.425V22.7029Z" fill="#dddddd"/>
  <path d="M94.9602 36.4416H94.8701C94.1193 37.6128 93.1133 38.4536 91.8521 38.9641C90.6208 39.4746 89.3145 39.7299 87.9331 39.7299C86.9121 39.7299 85.9211 39.5797 84.9602 39.2794C84.0292 39.0092 83.2034 38.5887 82.4827 38.0182C81.762 37.4476 81.1914 36.7419 80.771 35.9011C80.3506 35.0602 80.1404 34.0842 80.1404 32.9731C80.1404 31.7119 80.3656 30.6458 80.816 29.7749C81.2965 28.904 81.9271 28.1833 82.7079 27.6128C83.5187 27.0422 84.4346 26.6067 85.4557 26.3064C86.4767 25.9761 87.5277 25.7359 88.6088 25.5857C89.7199 25.4356 90.816 25.3455 91.8971 25.3155C93.0082 25.2854 94.0293 25.2704 94.9602 25.2704C94.9602 24.0692 94.5247 23.1233 93.6539 22.4326C92.813 21.7118 91.807 21.3515 90.6359 21.3515C89.5247 21.3515 88.5037 21.5917 87.5728 22.0722C86.6719 22.5227 85.8611 23.1533 85.1404 23.9641L81.5367 20.2704C82.798 19.0992 84.2695 18.2284 85.9512 17.6578C87.6329 17.0572 89.3746 16.7569 91.1764 16.7569C93.1584 16.7569 94.78 17.0121 96.0413 17.5226C97.3326 18.0031 98.3536 18.7239 99.1043 19.6848C99.8851 20.6458 100.426 21.832 100.726 23.2434C101.026 24.6248 101.176 26.2314 101.176 28.0632V39.1893H94.9602V36.4416ZM93.2935 29.5947C92.783 29.5947 92.1374 29.6248 91.3566 29.6848C90.6058 29.7149 89.8701 29.835 89.1494 30.0452C88.4587 30.2554 87.8581 30.5707 87.3476 30.9911C86.8671 31.4116 86.6268 31.9971 86.6268 32.7479C86.6268 33.5587 86.9722 34.1593 87.6629 34.5497C88.3536 34.9401 89.0743 35.1353 89.825 35.1353C90.4857 35.1353 91.1163 35.0452 91.7169 34.865C92.3476 34.6848 92.9031 34.4296 93.3836 34.0992C93.8641 33.7689 94.2395 33.3485 94.5097 32.838C94.81 32.3275 94.9602 31.7269 94.9602 31.0362V29.5947H93.2935Z" fill="#dddddd"/>
  <path d="M70.5114 5.13522H77.2682V39.1893H70.5114V5.13522Z" fill="#dddddd"/>
  <path d="M43.0182 28.2434C43.0182 26.5016 43.3335 24.9251 43.9641 23.5136C44.5947 22.1022 45.4506 20.901 46.5317 19.91C47.6428 18.889 48.9341 18.1082 50.4056 17.5677C51.9071 17.0272 53.4986 16.7569 55.1803 16.7569C56.862 16.7569 58.4386 17.0272 59.9101 17.5677C61.4116 18.1082 62.7029 18.889 63.7839 19.91C64.8951 20.901 65.7659 22.1022 66.3966 23.5136C67.0272 24.9251 67.3425 26.5016 67.3425 28.2434C67.3425 29.9851 67.0272 31.5617 66.3966 32.9731C65.7659 34.3845 64.8951 35.6008 63.7839 36.6218C62.7029 37.6128 61.4116 38.3785 59.9101 38.9191C58.4386 39.4596 56.862 39.7299 55.1803 39.7299C53.4986 39.7299 51.9071 39.4596 50.4056 38.9191C48.9341 38.3785 47.6428 37.6128 46.5317 36.6218C45.4506 35.6008 44.5947 34.3845 43.9641 32.9731C43.3335 31.5617 43.0182 29.9851 43.0182 28.2434ZM49.7749 28.2434C49.7749 29.895 50.2404 31.2314 51.1713 32.2524C52.1323 33.2734 53.4686 33.7839 55.1803 33.7839C56.892 33.7839 58.2134 33.2734 59.1443 32.2524C60.1053 31.2314 60.5857 29.895 60.5857 28.2434C60.5857 26.5917 60.1053 25.2554 59.1443 24.2344C58.2134 23.2133 56.892 22.7028 55.1803 22.7028C53.4686 22.7028 52.1323 23.2133 51.1713 24.2344C50.2404 25.2554 49.7749 26.5917 49.7749 28.2434Z" fill="#dddddd"/>
  <path d="M6.645 3.96877L6.02823 2.0499C5.89091 1.62271 6.39445 1.27934 6.74199 1.56317L8.38673 2.90638C8.63281 3.10734 8.59911 3.49305 8.3219 3.64829L7.29394 4.22395C7.04559 4.36302 6.73211 4.23975 6.645 3.96877Z" fill="#dddddd"/>
  <path d="M23.3607 7.83014C21.1359 5.38283 16.5008 2.36077 14.4614 1.15565C14.6158 1.24836 15.7776 1.43376 19.1892 1.43376C23.4536 1.43376 27.2541 4.4929 26.1417 4.21479C25.5251 4.06064 23.9829 3.89759 22.662 3.78114C22.2144 3.74168 22.0215 4.28 22.4016 4.51973C23.3038 5.0888 24.4736 5.74455 25.5855 6.16152C26.9203 6.66205 28.4427 6.88107 29.4726 6.9593C29.8313 6.98656 29.9984 7.36446 29.6996 7.56486C29.374 7.78323 28.9297 7.99562 28.3666 8.10824C27.7588 8.22978 27.1235 8.24619 26.5964 8.22095C26.2058 8.20224 25.9449 8.62307 26.2114 8.90925C26.6556 9.3862 27.293 9.93534 28.0885 10.3331C29.2024 10.89 30.652 11.0984 31.5323 11.1521C31.7806 11.1673 31.9304 11.3709 31.7483 11.5404C31.5154 11.757 31.0791 12.0245 30.3133 12.2798C29.9397 12.4043 29.6227 12.5027 29.3599 12.5738C28.9725 12.6785 28.8518 13.0431 29.1355 13.3269L30.0837 14.275C30.2208 14.4121 30.2548 14.6216 30.1681 14.795L29.3542 16.4229C29.1831 16.7649 28.688 16.7539 28.5272 16.407C27.4191 14.0166 25.3181 9.98332 23.3607 7.83014Z" fill="#dddddd"/>
  <path d="M9.6846 34.4595C11.7116 33.5586 17.0031 31.8177 20.9459 29.5046C24.8057 27.2401 26.9017 25.5489 27.9893 24.515C28.4976 24.0319 29.4659 24.1271 29.7889 24.7495L31.5122 28.0707C31.5241 28.0937 31.5479 28.1082 31.5739 28.1082C31.6027 28.1082 31.6285 28.0904 31.6388 28.0635L39.4179 7.78547C39.5515 7.43717 39.886 7.20724 40.2591 7.20724H45.8162C46.4577 7.20724 46.8936 7.85863 46.6491 8.45164L34.239 38.5418C34.0999 38.8791 33.771 39.0992 33.4062 39.0992H28.9639C28.6079 39.0992 28.2853 38.8895 28.1407 38.5642L25.0977 31.7175C24.9132 31.3025 24.4609 31.0858 24.0258 31.216C20.1533 32.3748 2.84168 37.5008 9.6846 34.4595Z" fill="#dddddd"/>
  <path d="M9.97148 0.466731C9.97148 0.081924 10.4314 -0.136447 10.7391 0.0945814C12.3464 1.3019 15.1059 3.109 16.686 4.21507C19.467 6.16177 21.4733 7.80352 23.8765 11.1676C27.2538 15.8952 27.7701 20.0666 27.492 21.1791C27.2138 22.2916 24.1547 24.7945 20.2615 26.7411C17.6853 28.0292 22.8206 23.9515 23.0988 23.1331C23.2052 22.8192 22.5346 22.6141 22.2045 22.5824C21.6952 22.5337 20.7766 23.1216 20.9459 21.7356C21.119 20.3197 15.5739 22.6673 18.0365 20.7208C21.309 18.134 16.0901 19.5105 18.0365 16.4516C19.1854 14.6461 18.7905 12.4268 18.1693 10.8658C18.0031 10.4481 17.4805 10.583 17.4805 11.0325V12.8361C17.4804 14.5046 16.3679 15.8952 14.9775 17.0076C13.865 17.8975 12.1036 18.1201 11.362 18.1201C10.713 18.1201 9.19284 18.3983 8.30296 19.5106C7.19059 20.9011 6.35599 22.0136 6.35599 23.4041C6.35592 24.7944 5.24378 24.2386 4.13145 24.5166C3.45343 24.686 3.80886 24.1126 4.26254 23.584C4.46278 23.3507 4.37151 23.0089 4.07646 23.0953C3.91604 23.1423 3.74276 23.2363 3.57499 23.4041C3.01881 23.9601 2.1846 23.9601 1.35044 23.9601C0.516312 23.96 0.793998 22.8479 0.515966 22.0136C0.237874 21.1793 -0.318132 20.3449 0.237953 19.2326C0.794144 18.1202 3.01901 15.3392 4.13145 13.6706C4.76765 12.7163 6.01018 10.7574 7.00571 9.17619C7.17537 8.90672 6.8298 8.61463 6.59177 8.82603C6.36498 9.02745 5.98905 8.75106 6.10657 8.47148C6.33486 7.92961 6.61037 7.24517 6.91246 6.43961C7.46651 4.96231 8.69759 4.40459 9.52411 4.25773C9.76896 4.21423 9.97135 4.01328 9.97148 3.76461V0.466731ZM3.56135 18.5332C3.07897 18.3773 2.25223 18.4146 2.25223 19.6751V20.9992C2.25226 21.063 2.29835 21.0576 2.36132 21.0472L2.72467 20.9869C2.84645 20.9663 4.14209 19.7866 4.19875 19.6751C4.61062 18.8514 4.10108 18.5995 3.72895 18.5666C3.67201 18.5615 3.61574 18.5507 3.56135 18.5332ZM12.0755 9.12692C11.5098 8.94968 9.91 8.79584 9.90989 10.0582C9.90989 10.3695 9.81419 10.6051 9.71106 10.7594C9.59883 10.9272 9.60482 10.9227 9.8008 10.8737L10.3603 10.7338C10.6385 10.6672 11.7846 10.6131 11.8564 10.1387C11.9277 9.66728 12.291 9.43679 12.2136 9.23337C12.1919 9.17643 12.1337 9.14515 12.0755 9.12692Z" fill="#dddddd"/>
</svg>
