<svg width="218" height="202" viewBox="0 0 218 202" fill="none" xmlns="http://www.w3.org/2000/svg">
    <path d="M76.0767 111.963L141.378 111.052M76.0767 111.963L107.903 55.1825M76.0767 111.963L56.3474 123.788M76.0767 111.963L55.1165 63.0008M76.0767 111.963L109.566 153.871M141.378 111.052L107.903 55.1825M141.378 111.052L161.146 61.2851M141.378 111.052L161.613 122.6M141.378 111.052L109.566 153.871M107.903 55.1825L161.146 61.2851M107.903 55.1825L107.77 31.5735M107.903 55.1825L55.1165 63.0008M161.146 61.2851L161.613 122.6M161.146 61.2851L107.77 31.5735M161.613 122.6L109.566 153.871M109.566 153.871L56.3474 123.788M56.3474 123.788L55.1165 63.0008M55.1165 63.0008L107.77 31.5735" stroke="white" stroke-width="1.22657" stroke-linecap="round" stroke-linejoin="round"/>
</svg>
