<svg width="47" height="40" viewBox="0 0 47 40" fill="none" xmlns="http://www.w3.org/2000/svg">
    <path d="M6.645 3.96877L6.02823 2.0499C5.89091 1.62271 6.39445 1.27934 6.74199 1.56317L8.38673 2.90638C8.63281 3.10734 8.59911 3.49305 8.3219 3.64829L7.29394 4.22395C7.04559 4.36302 6.73211 4.23975 6.645 3.96877Z" fill="#079211"/>
    <path d="M23.3607 7.83014C21.1359 5.38283 16.5008 2.36077 14.4614 1.15565C14.6158 1.24836 15.7776 1.43376 19.1892 1.43376C23.4536 1.43376 27.2541 4.4929 26.1417 4.21479C25.5251 4.06064 23.9829 3.89759 22.662 3.78114C22.2144 3.74168 22.0215 4.28 22.4016 4.51973C23.3038 5.0888 24.4736 5.74455 25.5855 6.16152C26.9203 6.66205 28.4427 6.88107 29.4726 6.9593C29.8313 6.98656 29.9984 7.36446 29.6996 7.56486C29.374 7.78323 28.9297 7.99562 28.3666 8.10824C27.7588 8.22978 27.1235 8.24619 26.5964 8.22095C26.2058 8.20224 25.9449 8.62307 26.2114 8.90925C26.6556 9.3862 27.293 9.93534 28.0885 10.3331C29.2024 10.89 30.652 11.0984 31.5323 11.1521C31.7806 11.1673 31.9304 11.3709 31.7483 11.5404C31.5154 11.757 31.0791 12.0245 30.3133 12.2798C29.9397 12.4043 29.6227 12.5027 29.3599 12.5738C28.9725 12.6785 28.8518 13.0431 29.1355 13.3269L30.0837 14.275C30.2208 14.4121 30.2548 14.6216 30.1681 14.795L29.3542 16.4229C29.1831 16.7649 28.688 16.7539 28.5272 16.407C27.4191 14.0166 25.3181 9.98332 23.3607 7.83014Z" fill="#079211"/>
    <path d="M9.6846 34.4595C11.7116 33.5586 17.0031 31.8177 20.9459 29.5046C24.8057 27.2401 26.9017 25.5489 27.9893 24.515C28.4976 24.0319 29.4659 24.1271 29.7889 24.7495L31.5122 28.0707C31.5241 28.0937 31.5479 28.1082 31.5739 28.1082C31.6027 28.1082 31.6285 28.0904 31.6388 28.0635L39.4179 7.78547C39.5515 7.43717 39.886 7.20724 40.2591 7.20724H45.8162C46.4577 7.20724 46.8936 7.85863 46.6491 8.45164L34.239 38.5418C34.0999 38.8791 33.771 39.0992 33.4062 39.0992H28.9639C28.6079 39.0992 28.2853 38.8895 28.1407 38.5642L25.0977 31.7175C24.9132 31.3025 24.4609 31.0858 24.0258 31.216C20.1533 32.3748 2.84168 37.5008 9.6846 34.4595Z" fill="#079211"/>
    <path d="M9.97148 0.466731C9.97148 0.081924 10.4314 -0.136447 10.7391 0.0945814C12.3464 1.3019 15.1059 3.109 16.686 4.21507C19.467 6.16177 21.4733 7.80352 23.8765 11.1676C27.2538 15.8952 27.7701 20.0666 27.492 21.1791C27.2138 22.2916 24.1547 24.7945 20.2615 26.7411C17.6853 28.0292 22.8206 23.9515 23.0988 23.1331C23.2052 22.8192 22.5346 22.6141 22.2045 22.5824C21.6952 22.5337 20.7766 23.1216 20.9459 21.7356C21.119 20.3197 15.5739 22.6673 18.0365 20.7208C21.309 18.134 16.0901 19.5105 18.0365 16.4516C19.1854 14.6461 18.7905 12.4268 18.1693 10.8658C18.0031 10.4481 17.4805 10.583 17.4805 11.0325V12.8361C17.4804 14.5046 16.3679 15.8952 14.9775 17.0076C13.865 17.8975 12.1036 18.1201 11.362 18.1201C10.713 18.1201 9.19284 18.3983 8.30296 19.5106C7.19059 20.9011 6.35599 22.0136 6.35599 23.4041C6.35592 24.7944 5.24378 24.2386 4.13145 24.5166C3.45343 24.686 3.80886 24.1126 4.26254 23.584C4.46278 23.3507 4.37151 23.0089 4.07646 23.0953C3.91604 23.1423 3.74276 23.2363 3.57499 23.4041C3.01881 23.9601 2.1846 23.9601 1.35044 23.9601C0.516312 23.96 0.793998 22.8479 0.515966 22.0136C0.237874 21.1793 -0.318132 20.3449 0.237953 19.2326C0.794144 18.1202 3.01901 15.3392 4.13145 13.6706C4.76765 12.7163 6.01018 10.7574 7.00571 9.17619C7.17537 8.90672 6.8298 8.61463 6.59177 8.82603C6.36498 9.02745 5.98905 8.75106 6.10657 8.47148C6.33486 7.92961 6.61037 7.24517 6.91246 6.43961C7.46651 4.96231 8.69759 4.40459 9.52411 4.25773C9.76896 4.21423 9.97135 4.01328 9.97148 3.76461V0.466731ZM3.56135 18.5332C3.07897 18.3773 2.25223 18.4146 2.25223 19.6751V20.9992C2.25226 21.063 2.29835 21.0576 2.36132 21.0472L2.72467 20.9869C2.84645 20.9663 4.14209 19.7866 4.19875 19.6751C4.61062 18.8514 4.10108 18.5995 3.72895 18.5666C3.67201 18.5615 3.61574 18.5507 3.56135 18.5332ZM12.0755 9.12692C11.5098 8.94968 9.91 8.79584 9.90989 10.0582C9.90989 10.3695 9.81419 10.6051 9.71106 10.7594C9.59883 10.9272 9.60482 10.9227 9.8008 10.8737L10.3603 10.7338C10.6385 10.6672 11.7846 10.6131 11.8564 10.1387C11.9277 9.66728 12.291 9.43679 12.2136 9.23337C12.1919 9.17643 12.1337 9.14515 12.0755 9.12692Z" fill="#079211"/>
</svg>
